<svg id="Group_44138" data-name="Group 44138" xmlns="http://www.w3.org/2000/svg" width="146.927" height="101.914" viewBox="0 0 146.927 101.914">
  <path id="Path_32856" data-name="Path 32856" d="M926.031,142.049c-5.125-5.965-28.647-12.181-28.647-12.181S879.49,119.282,860.251,115.5v4.2a151.211,151.211,0,0,1,26.127,9.325H860.251v29.32h27.891a12.163,12.163,0,0,1-1.008-4.957,12.854,12.854,0,0,1,25.708,0,12.157,12.157,0,0,1-1.008,4.957H929.56a23.589,23.589,0,0,0,.168-3.024C929.9,152.214,929.56,146.165,926.031,142.049Zm-7.9,4.621c-.5-5.377-6.637-8.4-6.637-8.4,11.509,1.512,14.282,8.4,14.282,8.4Zm-98.628,6.721a10.837,10.837,0,1,0-10.837,10.837A10.864,10.864,0,0,0,819.506,153.39ZM802.2,149.022l2.773,2.772h-3.949A8.909,8.909,0,0,1,802.2,149.022Zm-1.176,5.881h3.948l-2.772,2.772A8.149,8.149,0,0,1,801.024,154.9Zm6.132,6.049a6.768,6.768,0,0,1-2.772-1.176L807.156,157Zm0-11.341-2.772-2.772a8.129,8.129,0,0,1,2.772-1.176Zm3.108-3.864a6.768,6.768,0,0,1,2.773,1.176l-2.773,2.772Zm0,15.206v-3.864l2.773,2.772A8.673,8.673,0,0,1,810.264,160.951Zm4.957-3.276-2.773-2.772H816.4A10.21,10.21,0,0,1,815.221,157.675Zm-2.773-5.881,2.773-2.772a8.136,8.136,0,0,1,1.176,2.772Zm87.539-9.241a10.837,10.837,0,1,0,10.837,10.837A10.863,10.863,0,0,0,899.988,142.553Zm-6.469,6.469,2.773,2.772h-3.949A8.9,8.9,0,0,1,893.519,149.022Zm-1.176,5.881h3.948l-2.772,2.772A8.145,8.145,0,0,1,892.343,154.9Zm6.133,6.049a6.77,6.77,0,0,1-2.773-1.176L898.476,157Zm0-11.341-2.773-2.772a8.131,8.131,0,0,1,2.773-1.176Zm3.108-3.864a6.773,6.773,0,0,1,2.773,1.176l-2.773,2.772Zm0,15.206v-3.864l2.773,2.772A8.681,8.681,0,0,1,901.584,160.951Zm4.956-3.276-2.772-2.772h3.948A10.183,10.183,0,0,1,906.54,157.675Zm-2.772-5.881,2.772-2.772c.588.84.924,8.317,1.176,9.325Zm-107.953,1.6a11.762,11.762,0,0,0,1.008,4.873h-2.857l-8.569-1.848s-2.016-7.645-1.848-12.266a12.4,12.4,0,0,1,.084-1.848c.5-3.78,3.7-4.368,3.361-6.385-.42-2.436-5.209-5.293-3.948-8.317,3.7-.588,21.507-2.436,21.507-2.436s20.246-10.837,42.09-11.005v3.864a93.516,93.516,0,0,0-28.647,5.461l5.545,5.461h23.187v29.32H820.767a12.158,12.158,0,0,0,1.008-4.957,12.908,12.908,0,0,0-12.854-12.854A13.142,13.142,0,0,0,795.815,153.39Zm94.847,44.273v4.621c0,3.192-2.6,2.94-5.8,2.94h-63.6c-3.192,0-5.8.336-5.8-2.94v-4.621a5.808,5.808,0,0,1,5.8-5.8h27.471V177.5l-22.431-13.022c-.084-.084-.168-.084-.168-.168h-3.276a2.243,2.243,0,0,1-2.353-1.932,2.129,2.129,0,0,1,2.353-1.932h13.945a2.181,2.181,0,0,1,2.353,1.932,2.129,2.129,0,0,1-2.353,1.932h-2.856l14.87,8.569V108.025a4.7,4.7,0,0,1,9.409,0V172.04l13.694-7.9h-2.857a2.181,2.181,0,0,1-2.353-1.932,2.13,2.13,0,0,1,2.353-1.932h13.946a2.181,2.181,0,0,1,2.352,1.932,2.129,2.129,0,0,1-2.352,1.932H879.74c-.084.084-.168.084-.168.168l-21.338,12.35v15.122h26.8A5.908,5.908,0,0,1,890.662,197.664Z" transform="translate(-782.835 -103.32)"/>
</svg>
