<svg xmlns="http://www.w3.org/2000/svg" width="258" height="258" viewBox="0 0 258 258"><g transform="translate(-0.5 -0.003)" opacity="0.83"><ellipse cx="11" cy="12" rx="11" ry="12" transform="translate(0.5 188.003)" fill="#fff"/><ellipse cx="11" cy="12" rx="11" ry="12" transform="translate(0.5 94.003)" fill="#fff"/><circle cx="11" cy="11" r="11" transform="translate(0.5 0.003)" fill="#fff"/><circle cx="11" cy="11" r="11" transform="translate(0.5 236.003)" fill="#fff"/><ellipse cx="11" cy="12" rx="11" ry="12" transform="translate(0.5 140.003)" fill="#fff"/><ellipse cx="11" cy="12" rx="11" ry="12" transform="translate(0.5 46.003)" fill="#fff"/><circle cx="12" cy="12" r="12" transform="translate(94.5 188.003)" fill="#fff"/><circle cx="12" cy="12" r="12" transform="translate(94.5 94.003)" fill="#fff"/><ellipse cx="12" cy="11" rx="12" ry="11" transform="translate(94.5 0.003)" fill="#fff"/><ellipse cx="12" cy="11" rx="12" ry="11" transform="translate(94.5 236.003)" fill="#fff"/><circle cx="12" cy="12" r="12" transform="translate(94.5 140.003)" fill="#fff"/><circle cx="12" cy="12" r="12" transform="translate(94.5 46.003)" fill="#fff"/><circle cx="12" cy="12" r="12" transform="translate(188.5 188.003)" fill="#fff"/><circle cx="12" cy="12" r="12" transform="translate(188.5 94.003)" fill="#fff"/><ellipse cx="12" cy="11" rx="12" ry="11" transform="translate(188.5 0.003)" fill="#fff"/><ellipse cx="12" cy="11" rx="12" ry="11" transform="translate(188.5 236.003)" fill="#fff"/><circle cx="12" cy="12" r="12" transform="translate(188.5 140.003)" fill="#fff"/><circle cx="12" cy="12" r="12" transform="translate(188.5 46.003)" fill="#fff"/><circle cx="12" cy="12" r="12" transform="translate(46.5 188.003)" fill="#fff"/><circle cx="12" cy="12" r="12" transform="translate(46.5 94.003)" fill="#fff"/><ellipse cx="12" cy="11" rx="12" ry="11" transform="translate(46.5 0.003)" fill="#fff"/><ellipse cx="12" cy="11" rx="12" ry="11" transform="translate(46.5 236.003)" fill="#fff"/><circle cx="12" cy="12" r="12" transform="translate(46.5 140.003)" fill="#fff"/><circle cx="12" cy="12" r="12" transform="translate(46.5 46.003)" fill="#fff"/><circle cx="12" cy="12" r="12" transform="translate(140.5 188.003)" fill="#fff"/><circle cx="12" cy="12" r="12" transform="translate(140.5 94.003)" fill="#fff"/><ellipse cx="12" cy="11" rx="12" ry="11" transform="translate(140.5 0.003)" fill="#fff"/><ellipse cx="12" cy="11" rx="12" ry="11" transform="translate(140.5 236.003)" fill="#fff"/><circle cx="12" cy="12" r="12" transform="translate(140.5 140.003)" fill="#fff"/><circle cx="12" cy="12" r="12" transform="translate(140.5 46.003)" fill="#fff"/><ellipse cx="11" cy="12" rx="11" ry="12" transform="translate(236.5 188.003)" fill="#fff"/><ellipse cx="11" cy="12" rx="11" ry="12" transform="translate(236.5 94.003)" fill="#fff"/><circle cx="11" cy="11" r="11" transform="translate(236.5 0.003)" fill="#fff"/><circle cx="11" cy="11" r="11" transform="translate(236.5 236.003)" fill="#fff"/><ellipse cx="11" cy="12" rx="11" ry="12" transform="translate(236.5 140.003)" fill="#fff"/><ellipse cx="11" cy="12" rx="11" ry="12" transform="translate(236.5 46.003)" fill="#fff"/></g></svg>