<svg xmlns="http://www.w3.org/2000/svg" width="129.947" height="103.353" viewBox="0 0 129.947 103.353">
  <g id="Group_99964" data-name="Group 99964" transform="translate(0)">
    <path id="Path_32417" data-name="Path 32417" d="M438.372,152.831v1.258a3.1,3.1,0,0,1-3.1,3.1H311.614a3.1,3.1,0,0,1-3.1-3.1v-1.258a3.1,3.1,0,0,1,3.1-3.1H435.268A3.21,3.21,0,0,1,438.372,152.831Zm-3.1-83.89h-9.48L424.362,57.28c0-1.846-2.013-3.44-3.859-3.44H413.96c-1.846,0-3.859,1.51-3.859,3.44L408.675,68.94h-5.117V67.43a.752.752,0,0,0-.755-.755h-8.641a.752.752,0,0,0-.755.755v1.51h-2.349V67.43a.752.752,0,0,0-.755-.755h-8.641a.752.752,0,0,0-.755.755v1.51h-2.349V67.43a.752.752,0,0,0-.755-.755h-8.641a.752.752,0,0,0-.755.755v1.51h-2.349V67.43a.752.752,0,0,0-.755-.755h-8.641a.752.752,0,0,0-.755.755v1.51h-2.349V67.43a.752.752,0,0,0-.755-.755h-8.641a.752.752,0,0,0-.755.755v1.51h-5.117L336.865,57.28c0-1.846-2.013-3.44-3.859-3.44h-6.543c-1.846,0-3.859,1.51-3.859,3.44L321.178,68.94H311.7a3.1,3.1,0,0,0-3.1,3.1V73.3a3.1,3.1,0,0,0,3.1,3.1H435.353a3.1,3.1,0,0,0,3.1-3.1V72.044A3.225,3.225,0,0,0,435.268,68.94Zm-4.111,10.235v67.784H315.724V79.175Zm-75.669,20.8a2.793,2.793,0,0,0-2.768-2.768h-6.879V90.332a2.793,2.793,0,0,0-2.768-2.768h-4.279a2.793,2.793,0,0,0-2.768,2.768v6.879h-6.879a2.793,2.793,0,0,0-2.768,2.768v4.278a2.793,2.793,0,0,0,2.768,2.768h6.879v6.879a2.793,2.793,0,0,0,2.768,2.768h4.279a2.793,2.793,0,0,0,2.768-2.768v-6.879h6.879a2.793,2.793,0,0,0,2.768-2.768Zm65.015,0a2.793,2.793,0,0,0-2.768-2.768H394.078a2.793,2.793,0,0,0-2.768,2.768v4.278a2.793,2.793,0,0,0,2.768,2.768h23.657a2.793,2.793,0,0,0,2.768-2.768Z" transform="translate(-308.51 -53.84)"/>
  </g>
</svg>
