<svg id="Group_43923" data-name="Group 43923" xmlns="http://www.w3.org/2000/svg" width="122.523" height="122.466" viewBox="0 0 122.523 122.466">
  <path id="Path_32598" data-name="Path 32598" d="M400.855,295a61.249,61.249,0,1,0,86.618-.452A61.22,61.22,0,0,0,400.855,295Zm72.973,72.295a41.419,41.419,0,1,1-.3-58.575A41.5,41.5,0,0,1,473.828,367.293Zm-56.313-55.785a37.794,37.794,0,1,0,53.449-.3A37.834,37.834,0,0,0,417.515,311.507Zm17.866-.075a8.556,8.556,0,1,1,8.594,8.519A8.526,8.526,0,0,1,435.382,311.432ZM419.4,313.468a8.582,8.582,0,1,1,.076,12.137A8.577,8.577,0,0,1,419.4,313.468Zm28.948,28.571a5.6,5.6,0,1,1-.075-7.915A5.53,5.53,0,0,1,448.348,342.039Zm7.086,1.357a4.051,4.051,0,1,1-5.729,0A4.049,4.049,0,0,1,455.434,343.4Zm-22.163-10.554a4.051,4.051,0,1,1,5.729,0A4.05,4.05,0,0,1,433.271,332.841Zm-23.143,5.8a8.556,8.556,0,1,1,8.594,8.519A8.623,8.623,0,0,1,410.127,338.646ZM419.7,363a8.582,8.582,0,1,1,12.137-.075A8.576,8.576,0,0,1,419.7,363ZM452.8,364.2a8.556,8.556,0,1,1-8.594-8.519A8.674,8.674,0,0,1,452.8,364.2Zm-13.72-15a4.051,4.051,0,1,1,0-5.729A4.05,4.05,0,0,1,439.075,349.2Zm30.154,13.494a8.582,8.582,0,1,1-.076-12.137A8.576,8.576,0,0,1,469.23,362.694Zm-19.6-29.928a4.051,4.051,0,1,1,5.729,0A4.049,4.049,0,0,1,449.629,332.766Zm30.531,5.5a8.556,8.556,0,1,1-8.594-8.519A8.526,8.526,0,0,1,480.161,338.269Zm-11.082-12.891A8.582,8.582,0,1,1,469,313.241,8.577,8.577,0,0,1,469.079,325.378Z" transform="translate(-383.129 -276.876)"/>
</svg>
