<svg xmlns="http://www.w3.org/2000/svg" width="109.388" height="94.917" viewBox="0 0 109.388 94.917">
  <g id="Group_43949" data-name="Group 43949" transform="translate(0)">
    <path id="Path_32630" data-name="Path 32630" d="M640.216,296.92l14.491,14.491,7.683,10.312L666.5,322.8l11.323-11.39-1.078-4.179L666.5,299.616l-15.3-15.3L640.419,295.1Zm25.14,8.492a4.785,4.785,0,1,1-4.785,4.785A4.8,4.8,0,0,1,665.356,305.412Zm-41.72-27.027a7.346,7.346,0,0,0-1.753.2l-11.323-11.323a13.585,13.585,0,0,1-6.133,1.685c-10.918,0-21.163-10.379-21.3-21.3,0-.067,1.213-1.281,1.887-1.954,8.9,8.9,7.144,8.02,12.671,8.02,4.246,0,11.188-6.875,11.188-11.188,0-5.325.741-3.909-8.02-12.671.674-.674,1.888-1.887,1.955-1.887,10.851-.135,21.3,10.379,21.3,21.3a14.484,14.484,0,0,1-1.753,6.268l12.064,12.132Zm14.356-34.71-5.662-5.8s23.185-8.29,33.093,1.685c3.572,3.572,8.9,8.9,13.008,13.075.876.876.068,3.437.944,4.111a19.465,19.465,0,0,0,4.987,2.7c1.887.4,3.774,2.426,5.392,4.111l.607.607c1.348,1.348,2.157,2.089,2.157,2.9,0,.674-.607,1.483-1.887,2.831l-7.953,7.953c-2.9,2.9-3.235,2.224-5.729-.337l-.607-.607c-1.82-1.82-4.111-3.977-4.111-6.066v-.067c-.27-1.618-1.281-5.055-4.111-6.605-3.774-1.752-6.4.674-7.885,1.685l-27.431,27.3a7.056,7.056,0,0,1,.337,2.022,4.28,4.28,0,0,1-1.281,3.1l-.674.674s-17.591,17.524-22.174,22.039l-.674.674c-4.314,4.314-13.682-3.639-13.682-9.368a4.279,4.279,0,0,1,1.28-3.1l.674-.674c4.583-4.516,22.174-22.039,22.174-22.039l.674-.674a4.837,4.837,0,0,1,5.122-.876l29.993-29.857c1.28-1.483,2.426-2.966,2.426-3.774a.505.505,0,0,0-.067-.337C652.078,242.057,637.992,243.675,637.992,243.675Z" transform="translate(-583.13 -227.97)"/>
  </g>
</svg>
