<svg xmlns="http://www.w3.org/2000/svg" width="87.985" height="115.605" viewBox="0 0 87.985 115.605">
  <path id="Path_32436" data-name="Path 32436" d="M484.788,93.6a4.7,4.7,0,1,1-4.7-4.7A4.691,4.691,0,0,1,484.788,93.6Zm11.881,4.7-4.269,7.328c-1.494,2.561-4.837,4.7-7.47,4.7a8.522,8.522,0,0,0-5.407,2.561,7.375,7.375,0,0,0-1.636,2.348L461.1,152.433a9.152,9.152,0,0,0-.783,3.771,11.2,11.2,0,0,0,1.28,5.834l.64,1.138a10.4,10.4,0,0,1,0,9.391l-8.75,15.224a10.429,10.429,0,0,1-8.11,4.7H427.8a10.493,10.493,0,0,1-8.11-4.7l-8.751-15.224a10.4,10.4,0,0,1,0-9.391l8.751-15.153a10.43,10.43,0,0,1,8.11-4.7h1.352a11.915,11.915,0,0,0,8.537-4.482l24.758-32.583a9.831,9.831,0,0,0,1.28-2.917,7.876,7.876,0,0,0-.5-5.62c-1.28-2.277-1.138-6.26.356-8.822l4.268-7.328a10.43,10.43,0,0,1,8.111-4.7h8.466a9.847,9.847,0,0,1,4.055,1.067,9.619,9.619,0,0,1,4.055,3.628l4.269,7.328A10.871,10.871,0,0,1,496.669,98.294ZM423.891,190.28Zm27.816-22.41a15.153,15.153,0,1,0-15.153,15.153A15.12,15.12,0,0,0,451.707,167.87Zm36.069-89ZM488.986,93.6a8.964,8.964,0,1,0-8.964,8.964A8.927,8.927,0,0,0,488.986,93.6Zm-52.432,65.237a9.035,9.035,0,1,0,9.035,9.035A9.048,9.048,0,0,0,436.554,158.835Z" transform="translate(-409.823 -76.88)"/>
</svg>
